<svg width="95" height="34" viewBox="0 0 95 34" fill="none" xmlns="http://www.w3.org/2000/svg">
<path d="M91.655 21.2002C92.4421 21.2002 93.1095 21.474 93.657 22.0216C94.2046 22.5691 94.4784 23.2308 94.4784 24.0065C94.4784 24.7823 94.1989 25.4439 93.6399 25.9915C93.0924 26.5391 92.4307 26.8129 91.655 26.8129C90.8792 26.8129 90.2176 26.5391 89.67 25.9915C89.1224 25.4439 88.8486 24.7823 88.8486 24.0065C88.8486 23.2308 89.1224 22.5691 89.67 22.0216C90.2176 21.474 90.8792 21.2002 91.655 21.2002Z" fill="black"/>
<path d="M74.2348 11.6143L79.5053 10.0742C79.9274 10.599 80.224 11.0952 80.3951 11.5629C80.7031 12.3729 80.9198 13.4909 81.0453 14.9169C81.2849 17.7232 81.4503 20.7177 81.5416 23.9005C82.7622 22.292 84.1597 20.1645 85.734 17.5178C86.2131 16.7193 86.4527 15.9664 86.4527 15.2591C86.4527 14.8142 86.1732 14.3921 85.6142 13.9928C85.0666 13.5935 84.7244 13.2855 84.5875 13.0688C84.4506 12.8406 84.3821 12.5497 84.3821 12.1961C84.3821 11.6257 84.5875 11.1294 84.9982 10.7074C85.4202 10.2853 85.9279 10.0742 86.5211 10.0742C87.1485 10.0742 87.6904 10.3138 88.1467 10.7929C88.6144 11.272 88.8483 11.8367 88.8483 12.487C88.8483 13.2513 88.6316 14.1411 88.1981 15.1564C87.776 16.1603 86.7778 17.8886 85.2035 20.3413C83.1843 23.4784 81.205 26.1935 79.2657 28.4865C78.0223 29.9467 77.0184 30.9962 76.254 31.6351C75.4897 32.2853 74.6969 32.7987 73.8755 33.1751C73.385 33.3919 72.9001 33.5002 72.421 33.5002C71.7707 33.5002 71.2175 33.2721 70.7612 32.8158C70.2934 32.3595 70.0596 31.8176 70.0596 31.1902C70.0596 30.5627 70.2706 30.0323 70.6927 29.5988C71.1034 29.1653 71.5882 28.9485 72.1472 28.9485C72.8431 28.9485 73.4819 29.3136 74.0637 30.0437C74.4516 30.5342 74.771 30.7795 75.022 30.7795C75.2844 30.7795 75.541 30.7053 75.792 30.557C76.1343 30.3745 76.6134 29.9524 77.2294 29.2907C77.2979 27.8648 77.3321 26.7867 77.3321 26.0566C77.3321 25.0755 77.2864 23.6952 77.1952 21.9156L76.9043 15.396C76.8016 14.1982 76.5449 13.3369 76.1343 12.8121C75.8148 12.4242 75.3984 12.2303 74.8851 12.2303C74.6912 12.2303 74.4744 12.2474 74.2348 12.2816V11.6143Z" fill="black"/>
<path d="M62.8898 10.0742L60.768 17.4152C62.194 15.2705 63.2606 13.8046 63.9679 13.0174C65.006 11.8767 65.9015 11.1009 66.6544 10.6902C67.4074 10.2796 68.1146 10.0742 68.7763 10.0742C69.3695 10.0742 69.8772 10.2967 70.2992 10.7416C70.7213 11.1751 70.9324 11.7455 70.9324 12.4528C70.9324 13.0916 70.7955 13.8673 70.5217 14.78L68.3314 22.0867C68.1489 22.7255 68.0576 23.1419 68.0576 23.3358C68.0576 23.4499 68.0975 23.5526 68.1774 23.6439C68.2686 23.7351 68.3599 23.7808 68.4512 23.7808C68.5653 23.7808 68.685 23.7351 68.8105 23.6439C69.2098 23.313 69.6148 22.8453 70.0255 22.2407C70.1281 22.081 70.2935 21.8414 70.5217 21.522L71.1719 21.9156C69.495 24.7333 67.7325 26.1422 65.8844 26.1422C65.1771 26.1422 64.6238 25.9597 64.2246 25.5946C63.8253 25.2295 63.6257 24.7732 63.6257 24.2257C63.6257 23.7465 63.7625 23.0335 64.0363 22.0867L66.1753 14.78C66.3236 14.3008 66.3978 13.9472 66.3978 13.719C66.3978 13.5935 66.3464 13.4852 66.2438 13.3939C66.1411 13.2912 66.0213 13.2399 65.8844 13.2399C65.4509 13.2399 64.9261 13.5365 64.3101 14.1297C62.7358 15.6355 61.2129 17.8772 59.7413 20.8546L58.3381 25.9368H53.9746L57.1745 14.9511C57.4825 13.8673 57.6365 13.0973 57.6365 12.641C57.6365 12.4471 57.5909 12.2873 57.4996 12.1619C57.4084 12.025 57.2601 11.9223 57.0547 11.8538C56.8494 11.774 56.4615 11.7341 55.8911 11.7341L56.0794 11.0838L61.846 10.0742H62.8898Z" fill="black"/>
<path d="M45.6928 10.0742L43.571 17.4152C44.9969 15.2705 46.0636 13.8046 46.7709 13.0174C47.809 11.8767 48.7045 11.1009 49.4574 10.6902C50.2103 10.2796 50.9176 10.0742 51.5793 10.0742C52.1725 10.0742 52.6801 10.2967 53.1022 10.7416C53.5243 11.1751 53.7354 11.7455 53.7354 12.4528C53.7354 13.0916 53.5985 13.8673 53.3247 14.78L51.1344 22.0867C50.9518 22.7255 50.8606 23.1419 50.8606 23.3358C50.8606 23.4499 50.9005 23.5526 50.9804 23.6439C51.0716 23.7351 51.1629 23.7808 51.2542 23.7808C51.3682 23.7808 51.488 23.7351 51.6135 23.6439C52.0128 23.313 52.4178 22.8453 52.8284 22.2407C52.9311 22.081 53.0965 21.8414 53.3247 21.522L53.9749 21.9156C52.298 24.7333 50.5355 26.1422 48.6874 26.1422C47.9801 26.1422 47.4268 25.9597 47.0275 25.5946C46.6283 25.2295 46.4286 24.7732 46.4286 24.2257C46.4286 23.7465 46.5655 23.0335 46.8393 22.0867L48.9783 14.78C49.1266 14.3008 49.2007 13.9472 49.2007 13.719C49.2007 13.5935 49.1494 13.4852 49.0467 13.3939C48.9441 13.2912 48.8243 13.2399 48.6874 13.2399C48.2539 13.2399 47.7291 13.5365 47.1131 14.1297C45.5388 15.6355 44.0159 17.8772 42.5443 20.8546L41.1411 25.9368H36.7776L39.9775 14.9511C40.2855 13.8673 40.4395 13.0973 40.4395 12.641C40.4395 12.4471 40.3939 12.2873 40.3026 12.1619C40.2114 12.025 40.063 11.9223 39.8577 11.8538C39.6524 11.774 39.2645 11.7341 38.6941 11.7341L38.8823 11.0838L44.649 10.0742H45.6928Z" fill="black"/>
<path d="M26.8359 19.5199C26.7332 20.2614 26.6819 20.8718 26.6819 21.3509C26.6819 22.2065 26.9271 22.8909 27.4177 23.4043C27.9196 23.9176 28.587 24.1743 29.4197 24.1743C30.2183 24.1743 31.0168 23.9804 31.8154 23.5925C32.6254 23.2047 33.5608 22.5259 34.6217 21.5562L35.1351 22.0182C33.8232 23.6039 32.5455 24.7333 31.302 25.4064C30.0586 26.0794 28.6839 26.416 27.1781 26.416C25.273 26.416 23.9554 25.9597 23.2253 25.047C22.4952 24.1344 22.1301 23.0792 22.1301 21.8813C22.1301 20.0105 22.672 18.1396 23.7557 16.2687C24.8509 14.3978 26.3339 12.8977 28.2048 11.7683C30.0871 10.6389 31.9751 10.0742 33.8688 10.0742C34.8271 10.0742 35.5515 10.3024 36.042 10.7587C36.5325 11.215 36.7778 11.7911 36.7778 12.487C36.7778 13.3198 36.5382 14.1297 36.0591 14.9169C35.3975 15.9892 34.5647 16.8562 33.5608 17.5178C32.5569 18.1681 31.4332 18.6643 30.1898 19.0066C29.357 19.2347 28.239 19.4058 26.8359 19.5199ZM26.9899 18.6301C27.9938 18.4818 28.7695 18.2822 29.3171 18.0312C29.8761 17.7688 30.4179 17.3581 30.9427 16.7991C31.4789 16.2288 31.9409 15.5158 32.3287 14.6602C32.7166 13.7932 32.9105 12.9832 32.9105 12.2303C32.9105 11.9109 32.8193 11.6599 32.6368 11.4774C32.4656 11.2949 32.2432 11.2036 31.9694 11.2036C31.4218 11.2036 30.8058 11.5858 30.1213 12.3501C28.8665 13.7418 27.8226 15.8352 26.9899 18.6301Z" fill="black"/>
<path d="M12.2433 14.1766L10.2349 21.2295C9.95491 22.2247 9.81493 22.9275 9.81493 23.3379C9.81493 23.9101 9.99751 24.3455 10.3627 24.644C10.7278 24.9301 11.5555 25.0856 12.8458 25.1105L12.6084 25.8009H0.521484L0.722325 25.1105C1.74479 25.0981 2.46903 24.9985 2.89506 24.812C3.32108 24.6129 3.67407 24.2957 3.95403 23.8604C4.16096 23.5743 4.47135 22.6973 4.8852 21.2295L9.46802 5.16461C9.7845 4.09486 9.94273 3.32986 9.94273 2.86962C9.94273 2.40938 9.74189 2.02377 9.34021 1.7128C8.93853 1.38939 8.2082 1.21524 7.14922 1.19036L7.35006 0.5H17.1547C19.8448 0.5 21.7802 0.848291 22.9609 1.54487C24.7867 2.6395 25.6996 4.28145 25.6996 6.4707C25.6996 8.58533 24.7867 10.4512 22.9609 12.0682C21.1472 13.6729 18.7006 14.4752 15.621 14.4752C14.696 14.4752 13.57 14.3757 12.2433 14.1766ZM12.6084 12.7399C13.3996 12.8395 14.0569 12.8892 14.5803 12.8892C16.2601 12.8892 17.5808 12.1056 18.5424 10.5382C19.504 8.97094 19.9848 7.33521 19.9848 5.63107C19.9848 4.47425 19.6744 3.57864 19.0536 2.94426C18.4328 2.29743 17.5747 1.97402 16.4792 1.97402C16.2479 1.97402 15.9619 1.98646 15.621 2.01133L12.6084 12.7399Z" fill="black"/>
</svg>
