<svg width="180" height="180" viewBox="0 0 180 180" fill="none" xmlns="http://www.w3.org/2000/svg">
<g clip-path="url(#clip0_61_39441)">
<rect width="180" height="180" rx="12" fill="#222222"/>
<path d="M159.984 159.74C161.26 160.776 161.981 162.098 162.148 163.706C162.315 165.315 161.888 166.747 160.867 168.005C159.847 169.262 158.523 169.967 156.896 170.119C155.288 170.286 153.855 169.859 152.598 168.838C151.34 167.817 150.628 166.502 150.461 164.894C150.294 163.286 150.721 161.853 151.742 160.596C152.763 159.339 154.078 158.626 155.686 158.459C157.294 158.292 158.727 158.719 159.984 159.74Z" fill="white"/>
<path d="M144.362 121.279L154.932 125.718C154.925 127.124 154.753 128.319 154.415 129.302C153.848 131.021 152.728 133.118 151.055 135.594C147.75 140.459 144.077 145.53 140.037 150.809C144.132 149.808 149.197 148.199 155.232 145.981C157.059 145.317 158.439 144.412 159.369 143.265C159.955 142.544 160.057 141.492 159.677 140.109C159.315 138.742 159.165 137.792 159.229 137.26C159.307 136.71 159.579 136.149 160.044 135.576C160.795 134.651 161.781 134.117 163.002 133.973C164.241 133.845 165.342 134.171 166.304 134.951C167.321 135.777 167.884 136.878 167.993 138.255C168.12 139.648 167.756 140.871 166.901 141.925C165.895 143.164 164.372 144.321 162.334 145.396C160.328 146.468 156.436 147.955 150.656 149.859C143.255 152.287 136.474 154.083 130.313 155.248C126.376 155.978 123.367 156.358 121.288 156.388C119.193 156.436 117.232 156.225 115.406 155.754C114.325 155.46 113.397 154.997 112.62 154.367C111.566 153.511 110.97 152.413 110.83 151.073C110.673 149.718 111.007 148.532 111.833 147.515C112.658 146.498 113.698 145.916 114.953 145.768C116.189 145.606 117.26 145.893 118.166 146.628C119.294 147.544 119.849 148.977 119.832 150.926C119.815 152.231 120.01 153.049 120.417 153.379C120.842 153.725 121.356 153.942 121.957 154.032C122.752 154.187 124.085 154.133 125.954 153.871C127.941 151.65 129.415 149.948 130.376 148.764C131.667 147.174 133.41 144.877 135.604 141.872L143.712 130.922C145.122 128.845 145.84 127.111 145.864 125.72C145.857 124.671 145.437 123.809 144.605 123.133C144.291 122.878 143.917 122.62 143.484 122.36L144.362 121.279Z" fill="white"/>
<path d="M128 103.853L114.9 112.959C120.034 111.359 123.692 110.387 125.874 110.042C129.058 109.559 131.53 109.48 133.291 109.805C135.052 110.13 136.469 110.728 137.541 111.599C138.503 112.38 139.033 113.408 139.131 114.685C139.245 115.943 138.837 117.145 137.906 118.292C137.065 119.327 135.822 120.405 134.177 121.524L121.012 130.485C119.875 131.28 119.179 131.835 118.924 132.149C118.774 132.334 118.703 132.553 118.713 132.806C118.741 133.074 118.828 133.268 118.976 133.388C119.161 133.538 119.415 133.622 119.739 133.639C120.822 133.628 122.093 133.403 123.555 132.964C123.931 132.84 124.515 132.669 125.305 132.452L125.841 133.945C119.415 136.306 114.704 136.27 111.708 133.838C110.562 132.907 109.905 131.883 109.738 130.766C109.572 129.649 109.849 128.646 110.569 127.759C111.2 126.982 112.36 126.007 114.05 124.832L127.132 115.804C128.003 115.222 128.589 114.747 128.889 114.377C129.054 114.173 129.114 113.93 129.067 113.647C129.036 113.346 128.91 113.105 128.688 112.925C127.985 112.354 126.744 112.144 124.965 112.295C120.431 112.664 115.013 114.294 108.709 117.183L99.7467 123.574L92.6739 117.832L112.318 104.236C114.243 102.885 115.506 101.839 116.107 101.1C116.362 100.785 116.498 100.466 116.515 100.143C116.548 99.8009 116.442 99.4393 116.2 99.0581C115.972 98.6585 115.396 98.0833 114.471 97.3327L115.632 96.5264L126.308 102.479L128 103.853Z" fill="white"/>
<path d="M100.125 81.2214L87.025 90.328C92.1588 88.7283 95.8168 87.7559 97.9991 87.4108C101.183 86.9279 103.655 86.849 105.416 87.1741C107.177 87.4993 108.594 88.0973 109.666 88.968C110.628 89.7487 111.158 90.7773 111.257 92.0539C111.37 93.312 110.962 94.5143 110.031 95.6608C109.19 96.6963 107.948 97.7735 106.303 98.8925L93.1368 107.854C92.0003 108.649 91.3044 109.204 91.0492 109.518C90.899 109.703 90.8286 109.922 90.838 110.175C90.8658 110.443 90.9537 110.637 91.1016 110.757C91.2865 110.907 91.5407 110.991 91.8642 111.008C92.9468 110.997 94.2187 110.772 95.6801 110.333C96.0567 110.209 96.6401 110.038 97.4302 109.821L97.9663 111.314C91.54 113.675 86.829 113.639 83.8335 111.207C82.6871 110.276 82.0305 109.252 81.8637 108.135C81.6969 107.018 81.9738 106.015 82.6944 105.128C83.325 104.351 84.4851 103.376 86.175 102.201L99.2577 93.1726C100.129 92.5912 100.714 92.1155 101.014 91.7457C101.18 91.5423 101.239 91.2991 101.193 91.0161C101.161 90.7145 101.035 90.4737 100.813 90.2935C100.11 89.723 98.8693 89.5132 97.0901 89.6641C92.5567 90.0331 87.1382 91.6624 80.8345 94.5519L71.872 100.943L64.7992 95.2007L84.4431 81.605C86.3686 80.2537 87.6316 79.2082 88.2321 78.4686C88.4873 78.1542 88.6235 77.8353 88.6407 77.5118C88.6729 77.1698 88.5677 76.8082 88.3249 76.427C88.0971 76.0274 87.521 75.4522 86.5965 74.7016L87.7573 73.8953L98.4331 79.8478L100.125 81.2214Z" fill="white"/>
<path d="M57.1286 71.7162C55.9864 72.783 55.1 73.7047 54.4695 74.4813C53.3435 75.8681 52.8403 77.3003 52.9599 78.778C53.0979 80.2706 53.8418 81.5649 55.1917 82.6609C56.486 83.7118 58.0356 84.4483 59.8404 84.8705C61.6637 85.3077 64.0732 85.4385 67.069 85.263L67.2931 86.6874C63.0798 87.5312 59.5226 87.6804 56.6213 87.135C53.72 86.5896 51.049 85.326 48.6082 83.3443C45.5202 80.8372 43.985 78.3636 44.0026 75.9235C44.0202 73.4834 44.8172 71.2926 46.3935 69.3511C48.8556 66.3185 52.196 63.9991 56.4147 62.3928C60.6519 60.8015 65.0299 60.3216 69.5487 60.9531C74.086 61.5996 77.8894 63.1689 80.9589 65.661C82.5121 66.922 83.386 68.2452 83.5806 69.6303C83.7752 71.0155 83.4146 72.2721 82.4989 73.4C81.4029 74.7499 79.9487 75.7475 78.1362 76.3928C75.6526 77.2602 73.1618 77.5696 70.6638 77.321C68.1809 77.0539 65.7065 76.3795 63.2406 75.2978C61.5905 74.5717 59.5532 73.3778 57.1286 71.7162ZM58.5493 70.4765C60.3716 71.5573 61.8917 72.2545 63.1096 72.5684C64.3609 72.8787 65.7797 72.9261 67.3659 72.7106C68.9856 72.4917 70.6728 71.944 72.4275 71.0676C74.1971 70.1727 75.5774 69.1151 76.5682 67.8947C76.9886 67.3769 77.1709 66.85 77.1153 66.314C77.0781 65.7929 76.8376 65.3523 76.3939 64.992C75.5063 64.2713 74.0048 64.0801 71.8895 64.4182C68.024 65.0227 63.5772 67.0422 58.5493 70.4765Z" fill="white"/>
<path d="M40.5068 43.8524L27.9698 52.6413C26.2064 53.8859 25.0546 54.8409 24.5144 55.5062C23.7614 56.4337 23.4844 57.3796 23.6835 58.3441C23.8988 59.2884 25.0359 60.6297 27.0945 62.368L25.8012 63.1746L6.2095 47.2682L7.44356 46.4135C9.11723 47.7389 10.4221 48.5307 11.3582 48.7889C12.3107 49.027 13.3003 48.9774 14.327 48.6401C15.0389 48.4487 16.6961 47.4357 19.2985 45.6012L47.8682 25.5925C49.7889 24.2751 51.0522 23.2433 51.6578 22.4973C52.2635 21.7513 52.4454 20.862 52.2036 19.8293C51.9781 18.7765 51.0235 17.5331 49.3398 16.0992L50.5738 15.2445L66.4662 28.1474C70.8265 31.6875 73.5052 34.799 74.5023 37.4819C76.0212 41.6589 75.3402 45.5217 72.4591 49.0703C69.6763 52.4979 65.7411 54.3208 60.6536 54.5392C55.6021 54.7533 50.5806 52.8341 45.5889 48.7814C44.0895 47.564 42.3954 45.921 40.5068 43.8524ZM42.9894 42.0042C44.1408 43.2067 45.1408 44.1523 45.9892 44.8411C48.7119 47.0517 51.8839 47.5195 55.5051 46.2445C59.1263 44.9695 62.0583 42.9509 64.3009 40.1886C65.8233 38.3135 66.4988 36.4534 66.3274 34.6082C66.1724 32.7428 65.2071 31.0893 63.4314 29.6476C63.0565 29.3432 62.5765 28.987 61.9913 28.5788L42.9894 42.0042Z" fill="white"/>
</g>
<defs>
<clipPath id="clip0_61_39441">
<rect width="180" height="180" rx="12" fill="white"/>
</clipPath>
</defs>
</svg>
